HIERARCHY
ROOT SimulationBone
{
	OFFSET 0.000000 0.000000 0.000000
	CHANNELS 6 Xposition Yposition Zposition Zrotation Yrotation Xrotation 
	JOINT Hips
	{
		OFFSET 0.000000 0.000000 0.000000
		CHANNELS 6 Xposition Yposition Zposition Zrotation Yrotation Xrotation 
		JOINT RightUpLeg
		{
			OFFSET 0.103454 1.857841 10.548504
			CHANNELS 3 Zrotation Yrotation Xrotation
			JOINT RightLeg
			{
				OFFSET 43.499992 -0.000061 0.000000
				CHANNELS 3 Zrotation Yrotation Xrotation
				JOINT RightFoot
				{
					OFFSET 42.372196 0.000008 -0.000002
					CHANNELS 3 Zrotation Yrotation Xrotation
					JOINT RightToe
					{
						OFFSET 17.300022 0.000011 0.000012
						CHANNELS 3 Zrotation Yrotation Xrotation
						End Site
						{
							OFFSET 0.000000 0.000000 0.000000
						}
					}
				}
			}
		}
		JOINT LeftUpLeg
		{
			OFFSET 0.103458 1.857820 -10.548491
			CHANNELS 3 Zrotation Yrotation Xrotation
			JOINT LeftLeg
			{
				OFFSET 43.500046 0.000015 0.000006
				CHANNELS 3 Zrotation Yrotation Xrotation
				JOINT LeftFoot
				{
					OFFSET 42.372269 -0.000046 0.000017
					CHANNELS 3 Zrotation Yrotation Xrotation
					JOINT LeftToe
					{
						OFFSET 17.300032 0.000011 0.000015
						CHANNELS 3 Zrotation Yrotation Xrotation
						End Site
						{
							OFFSET 0.000000 0.000000 0.000000
						}
					}
				}
			}
		}
		JOINT Spine
		{
			OFFSET 6.901962 -2.603707 -0.000004
			CHANNELS 3 Zrotation Yrotation Xrotation
			JOINT Spine1
			{
				OFFSET 12.588104 -0.000004 -0.000001
				CHANNELS 3 Zrotation Yrotation Xrotation
				JOINT Spine2
				{
					OFFSET 12.343199 -0.000026 0.000003
					CHANNELS 3 Zrotation Yrotation Xrotation
					JOINT Neck
					{
						OFFSET 25.832890 0.000004 -0.000006
						CHANNELS 3 Zrotation Yrotation Xrotation
						JOINT Head
						{
							OFFSET 11.766623 0.000031 0.000004
							CHANNELS 3 Zrotation Yrotation Xrotation
							End Site
							{
								OFFSET 0.000000 0.000000 0.000000
							}
						}
					}
					JOINT RightShoulder
					{
						OFFSET 19.745897 -1.480345 6.000100
						CHANNELS 3 Zrotation Yrotation Xrotation
						JOINT RightArm
						{
							OFFSET 11.284126 0.000003 -0.000015
							CHANNELS 3 Zrotation Yrotation Xrotation
							JOINT RightForeArm
							{
								OFFSET 33.000057 -0.000023 0.000027
								CHANNELS 3 Zrotation Yrotation Xrotation
								JOINT RightHand
								{
									OFFSET 25.199987 0.000051 0.000021
									CHANNELS 3 Zrotation Yrotation Xrotation
									End Site
									{
										OFFSET 0.000000 0.000000 0.000000
									}
								}
							}
						}
					}
					JOINT LeftShoulder
					{
						OFFSET 19.746086 -1.480362 -6.000076
						CHANNELS 3 Zrotation Yrotation Xrotation
						JOINT LeftArm
						{
							OFFSET 11.284140 0.000004 -0.000015
							CHANNELS 3 Zrotation Yrotation Xrotation
							JOINT LeftForeArm
							{
								OFFSET 33.000084 -0.000023 0.000011
								CHANNELS 3 Zrotation Yrotation Xrotation
								JOINT LeftHand
								{
									OFFSET 25.199789 0.000148 0.000422
									CHANNELS 3 Zrotation Yrotation Xrotation
									End Site
									{
										OFFSET 0.000000 0.000000 0.000000
									}
								}
							}
						}
					}
				}
			}
		}
	}
}
MOTION
Frames: 14
Frame Time: 0.016667
-21.532681 0.000000 -507.493420 0.000000 9.818763 0.000000 1.321185 88.938820 -0.529417 98.744880 -2.726980 179.411140 168.724606 -3.122495 176.422625 -34.787184 -4.586674 0.406491 80.461110 -0.199216 -0.150870 21.454560 0.003111 0.000017 165.212809 8.282106 -179.447525 -69.115175 -1.080408 -0.571172 75.767062 1.327264 3.010839 21.454553 -0.003092 0.000000 9.496034 -1.312640 -1.049046 9.005851 -2.539614 -2.197548 8.687672 -2.552971 -2.182179 27.008800 -3.569891 -0.383714 -5.867296 -10.574890 2.601068 -161.901792 -73.133297 -19.980691 -16.293965 56.462399 22.467022 -31.433073 -14.725451 1.266902 6.147169 1.066315 14.624919 -162.502602 79.002012 19.342513 -36.715810 -66.061901 -2.753638 -36.392507 17.360053 -1.520477 8.717154 4.980714 -39.599721 
-21.006199 0.000000 -507.788673 0.000000 9.318298 0.000000 1.337261 88.998113 -0.494079 98.805060 -2.773415 179.850533 169.301491 -3.047795 176.236594 -34.654845 -4.528028 0.444323 80.805760 -0.206232 -0.067390 21.454558 0.003110 0.000017 164.433935 8.628822 -178.916694 -68.859577 -0.884327 -1.136601 76.575991 1.649192 2.828939 21.454547 -0.003092 -0.000000 9.523730 -1.320174 -1.155908 9.063729 -2.545713 -2.412208 8.745588 -2.560366 -2.396801 27.134435 -3.621877 -0.311774 -5.444686 -10.694928 2.674800 -163.542930 -73.517676 -18.292674 -18.745250 54.845961 22.649372 -30.259335 -14.302244 1.216018 6.194132 1.910614 16.428311 -161.473957 78.854714 20.390565 -35.541559 -66.491038 -3.838828 -35.164312 17.007511 -1.469480 8.919394 4.828072 -38.423500 
-20.495127 0.000000 -508.067733 0.000000 8.833838 0.000000 1.359110 89.035477 -0.463638 98.861414 -2.894262 -179.825027 169.881531 -2.898100 175.973335 -34.516138 -4.438606 0.460282 81.160418 -0.207255 -0.018867 21.454557 0.003109 0.000017 163.845433 8.943802 -178.690152 -67.949958 -0.626680 -1.563018 77.116311 1.923775 2.818135 21.454546 -0.003092 0.000000 9.541636 -1.353549 -1.223666 9.101873 -2.606618 -2.550614 8.783747 -2.622106 -2.534838 27.253396 -3.611179 -0.220425 -4.964386 -10.739801 2.738701 -165.154192 -73.826315 -16.637715 -21.156650 53.080547 23.143783 -29.074277 -13.909614 1.168279 6.519955 2.791520 17.352333 -160.607156 78.712692 21.274304 -34.232227 -66.889248 -5.085249 -33.882010 16.591105 -1.412680 9.219663 4.551551 -37.344413 
-20.000113 0.000000 -508.331263 0.000000 8.368211 0.000000 1.396448 89.088456 -0.444776 98.943696 -3.015873 -179.602850 170.544941 -2.716524 175.695531 -34.272324 -4.315445 0.430302 81.485833 -0.187485 -0.015054 21.454557 0.003108 0.000017 163.561195 9.174637 -178.905991 -66.287686 -0.140872 -1.718863 77.681920 2.054185 3.021497 21.454550 -0.003091 0.000000 9.554599 -1.398215 -1.265963 9.129941 -2.692150 -2.638974 8.811821 -2.708168 -2.622680 27.420357 -3.584976 -0.109166 -4.539574 -10.728429 2.815521 -166.615346 -74.071821 -15.138400 -23.314857 51.259065 23.779309 -28.117798 -13.551067 1.127659 7.202529 3.790413 17.598742 -160.240502 78.605636 21.648897 -32.841340 -67.216755 -6.501788 -32.535400 16.049469 -1.347777 9.653567 4.286230 -36.366656 
-19.521647 0.000000 -508.579564 0.000000 7.924321 0.000000 1.440540 89.154640 -0.432571 99.036384 -3.130650 -179.467026 171.256939 -2.500595 175.587635 -33.928506 -4.238493 0.272340 81.782294 -0.090554 -0.071303 21.454560 0.003107 0.000017 163.544973 9.297808 -179.345427 -63.914355 0.349107 -1.723585 78.304040 2.080143 3.231033 21.454555 -0.003091 0.000000 9.562013 -1.449863 -1.294815 9.146879 -2.792799 -2.700935 8.828753 -2.809189 -2.684032 27.612374 -3.542337 0.047756 -4.189926 -10.766864 2.960395 -167.781984 -74.282838 -13.942041 -25.151255 49.517382 24.257889 -27.470362 -13.275073 1.098516 8.047508 4.765279 17.805197 -160.382252 78.530190 21.505699 -31.374045 -67.481200 -8.129892 -31.189197 15.457901 -1.282610 10.090058 4.052487 -35.594164 
-19.059847 0.000000 -508.812280 0.000000 7.504401 0.000000 1.483113 89.220245 -0.419044 99.117056 -3.250031 -179.399982 171.960725 -2.248348 175.778906 -33.528241 -4.276501 -0.065221 82.062231 0.120465 -0.190731 21.454562 0.003105 0.000017 163.750460 9.313804 -179.799612 -60.857444 0.636852 -1.737689 78.891714 2.070358 3.259984 21.454555 -0.003092 -0.000000 9.561928 -1.506267 -1.319875 9.148954 -2.903420 -2.755546 8.830805 -2.920139 -2.737974 27.789819 -3.489503 0.271900 -3.904841 -10.946365 3.215978 -168.553365 -74.478604 -13.151343 -26.640225 47.968101 24.310156 -27.140647 -13.131376 1.083663 8.826241 5.524468 18.556023 -160.894063 78.479993 20.985441 -29.821141 -67.711428 -9.983229 -29.935075 14.916800 -1.223028 10.432415 3.807176 -35.163047 
-18.614352 0.000000 -509.027536 0.000000 7.109200 0.000000 1.536196 89.265938 -0.396198 99.182468 -3.397392 -179.382487 172.621051 -1.986800 176.055885 -33.166547 -4.375865 -0.449880 82.348270 0.362769 -0.323881 21.454563 0.003104 0.000017 164.232213 9.281098 179.547724 -56.944543 0.949809 -1.756048 79.128417 2.055532 3.255163 21.454553 -0.003092 0.000000 9.552435 -1.563283 -1.342967 9.132227 -3.015661 -2.806047 8.814053 -3.032683 -2.787796 27.923199 -3.509255 0.542444 -3.644803 -11.210197 3.546790 -169.012497 -74.618822 -12.680930 -27.851009 46.617208 23.879399 -27.009717 -13.129663 1.081219 9.379766 5.952158 19.820524 -161.346879 78.479619 20.524522 -28.174176 -67.979258 -11.922039 -28.904400 14.489249 -1.176205 10.888596 3.347159 -35.243693 
-18.184164 0.000000 -509.221928 0.000000 6.738854 0.000000 1.607169 89.298012 -0.363171 99.224213 -3.549709 -179.387963 173.227785 -1.772289 176.208679 -32.868204 -4.474666 -0.750083 82.627080 0.554512 -0.421596 21.454559 0.003108 0.000017 165.068713 9.220698 178.495301 -52.000264 1.519042 -1.682687 78.812446 2.023067 3.381650 21.454550 -0.003091 0.000000 9.530388 -1.608655 -1.362498 9.089948 -3.105276 -2.848151 8.771763 -3.122549 -2.829359 27.991661 -3.674749 0.833194 -3.375794 -11.487930 3.909119 -169.285543 -74.669291 -12.401305 -28.852266 45.458800 22.999974 -26.968096 -13.265811 1.089477 9.604771 5.975298 21.374275 -161.347158 78.550256 20.523354 -26.413466 -68.347495 -13.820110 -28.203390 14.219587 -1.146345 11.622691 2.505154 -36.040978 
-17.767740 0.000000 -509.394013 0.000000 6.393835 0.000000 1.664592 89.430817 -0.339229 99.196023 -3.485480 -179.363074 173.858395 -1.773406 176.385606 -32.321096 -4.587728 -1.027625 82.728466 0.738644 -0.486073 21.454555 0.003111 0.000017 166.339995 8.926804 177.160135 -46.036137 2.168111 -1.363807 78.427141 1.835756 3.543817 21.454550 -0.003091 0.000000 9.487659 -1.599597 -1.371047 9.004377 -3.087632 -2.863393 8.686208 -3.104996 -2.844708 28.001773 -3.945489 1.139893 -3.117795 -11.802770 4.302895 -169.484217 -74.688142 -12.197880 -29.623831 44.533266 21.837879 -27.070445 -13.520995 1.107370 9.600113 5.567511 22.837395 -160.911755 78.658331 20.965083 -24.540063 -68.790145 -15.692019 -27.799537 14.112944 -1.132106 12.309400 1.407742 -37.836368 
-17.363643 0.000000 -509.544880 0.000000 6.074132 0.000000 1.677664 89.739993 -0.336213 99.064319 -3.060595 -179.269818 174.550892 -2.088964 176.719699 -31.315525 -4.717188 -1.348871 82.538993 0.956295 -0.534624 21.454555 0.003110 0.000017 167.993104 8.255936 175.760623 -39.518295 2.599169 -0.747517 78.478555 1.405144 3.630529 21.454554 -0.003092 -0.000000 9.418589 -1.511824 -1.364504 8.863409 -2.914673 -2.841649 8.545282 -2.931911 -2.824010 27.964360 -4.257059 1.463515 -2.907479 -12.184025 4.735090 -169.670349 -74.730024 -12.007299 -30.166365 43.858315 20.536092 -27.373570 -13.855467 1.133626 9.485383 4.717445 23.833801 -160.186195 78.743792 21.702198 -22.526480 -69.252461 -17.593002 -27.641443 14.158510 -1.132442 12.636182 0.230260 -40.761884 
-16.971431 0.000000 -509.674701 0.000000 5.779301 0.000000 1.659859 90.038292 -0.328129 98.871892 -2.640948 -179.157642 175.100710 -2.404603 176.939780 -30.392695 -4.757804 -1.595830 82.330403 1.117054 -0.590531 21.454558 0.003109 0.000017 169.399510 7.519104 174.655846 -34.653404 2.569924 -0.130949 78.879572 0.975610 3.730379 21.454557 -0.003094 -0.000000 9.332353 -1.425656 -1.357437 8.688198 -2.745370 -2.818806 8.370110 -2.762474 -2.802190 27.878027 -4.562553 1.803247 -2.791535 -12.592404 5.197298 -169.701691 -74.744293 -11.975212 -30.597570 43.293747 19.057074 -27.777408 -14.160788 1.160725 9.251852 3.451955 24.147818 -159.437309 78.701409 22.464787 -20.169601 -69.651541 -19.641128 -27.738184 14.321681 -1.144405 12.778526 -0.898678 -44.333070 
-16.591182 0.000000 -509.782573 0.000000 5.509435 0.000000 1.631267 90.150413 -0.287731 98.667708 -2.556764 -179.080127 175.338866 -2.439080 176.804783 -30.062576 -4.628388 -1.659293 82.363043 1.139918 -0.675505 21.454559 0.003110 0.000017 170.025664 6.986595 174.107550 -33.166279 2.066284 0.217642 79.368707 0.771931 3.937671 21.454551 -0.003094 0.000000 9.240893 -1.411152 -1.362145 8.504905 -2.718395 -2.825016 8.186835 -2.735537 -2.808563 27.751180 -4.816622 2.161544 -2.803267 -13.008209 5.689263 -169.455570 -74.677310 -12.227224 -31.017375 42.720088 17.352140 -28.174206 -14.353757 1.180444 8.885782 1.847171 23.646254 -158.887241 78.461673 23.028342 -17.389801 -69.909483 -21.837777 -28.062908 14.541687 -1.163863 12.957202 -1.854794 -47.911008 
-16.222848 0.000000 -509.868699 0.000000 5.265118 0.000000 1.590299 90.211739 -0.214361 98.474628 -2.482454 -179.029373 175.460798 -2.485596 176.564078 -29.953835 -4.414696 -1.667020 82.465920 1.111481 -0.808408 21.454560 0.003111 0.000017 170.366187 6.458298 173.731544 -33.035636 1.558536 0.531834 79.582078 0.609114 4.151814 21.454545 -0.003093 -0.000000 9.152666 -1.392542 -1.364227 8.327893 -2.683327 -2.825795 8.009847 -2.700473 -2.809553 27.642738 -4.963165 2.555701 -2.916167 -13.561310 6.256613 -169.096809 -74.568675 -12.594650 -31.402764 42.275113 15.449654 -28.585449 -14.520045 1.198348 8.425245 0.144985 22.351041 -158.366130 78.134115 23.564311 -14.721886 -70.035111 -23.709667 -28.383146 14.677337 -1.178717 13.191354 -2.544615 -50.803895 
-15.866457 0.000000 -509.934589 0.000000 5.046118 0.000000 1.534825 90.381729 -0.114558 98.311756 -2.064331 -178.988855 175.690592 -2.860998 176.484700 -29.616559 -4.213173 -1.753870 82.421708 1.125573 -0.997210 21.454558 0.003109 0.000017 171.006871 5.730450 173.164501 -31.976787 1.424468 1.018304 79.262461 0.303929 4.256609 21.454546 -0.003091 -0.000000 9.074589 -1.287066 -1.351416 8.168411 -2.475573 -2.790841 7.850418 -2.492512 -2.775855 27.602180 -4.982774 2.998395 -3.094056 -14.353081 6.935651 -168.814914 -74.460444 -12.883416 -31.713088 42.117068 13.378504 -29.071170 -14.767631 1.223477 7.927786 -1.427011 20.350343 -157.719900 77.851531 24.227466 -12.685590 -70.076446 -24.850733 -28.474999 14.622021 -1.177004 13.431881 -2.910063 -52.441834 
